<?xml version="1.0" encoding="utf-8"?>
<!-- Generator: Adobe Illustrator 20.1.0, SVG Export Plug-In . SVG Version: 6.00 Build 0)  -->
<svg version="1.1" id="Calque_1" xmlns="http://www.w3.org/2000/svg" xmlns:xlink="http://www.w3.org/1999/xlink" x="0px" y="0px"
	 viewBox="0 0 17 17" style="enable-background:new 0 0 17 17;" xml:space="preserve">
<style type="text/css">
	.st0{display:none;}
	.st1{display:inline;}
	.st2{fill:#202020;}
	.st3{display:inline;fill:#202020;}
</style>
<g class="st0">
	<g class="st1">
		<path class="st2" d="M8.5,13.7c-4.8,0-8.2-4.7-8.3-4.9c-0.1-0.2-0.1-0.4,0-0.6C0.3,8,3.7,3.3,8.5,3.3c4.8,0,8.2,4.7,8.3,4.9
			c0.1,0.2,0.1,0.4,0,0.6C16.7,9,13.3,13.7,8.5,13.7z M1.3,8.5c0.8,1,3.6,4.1,7.2,4.1c3.6,0,6.4-3.1,7.2-4.1c-0.8-1-3.6-4.1-7.2-4.1
			C4.9,4.4,2.1,7.5,1.3,8.5z"/>
	</g>
	<g class="st1">
		<path class="st2" d="M8.5,11.6c-1.8,0-3.2-1.4-3.2-3.2s1.4-3.2,3.2-3.2s3.2,1.4,3.2,3.2S10.3,11.6,8.5,11.6z M8.5,6.2
			c-1.2,0-2.1,1-2.1,2.1s1,2.1,2.1,2.1s2.1-1,2.1-2.1S9.7,6.2,8.5,6.2z"/>
	</g>
	<g class="st1">
		<path class="st2" d="M8.5,10c-0.9,0-1.6-0.7-1.6-1.6c0-0.3,0.1-0.6,0.2-0.8L8,8.1C8,8.2,8,8.3,8,8.4c0,0.3,0.2,0.5,0.5,0.5V10z"/>
	</g>
</g>
<g class="st0">
	<g class="st1">
		<path class="st2" d="M0.6,16.9c-0.1,0-0.3-0.1-0.4-0.2c-0.1-0.1-0.2-0.3-0.1-0.5l1.1-4.5c0-0.1,0.1-0.2,0.1-0.3L11.9,0.8
			c1.1-1.1,2.7-1,4,0.2c0.6,0.6,0.9,1.2,1,1.9c0.1,0.8-0.2,1.5-0.7,2L5.5,15.7c-0.1,0.1-0.2,0.1-0.3,0.1l-4.5,1.1
			C0.7,16.9,0.7,16.9,0.6,16.9z M2.2,12.1l-0.8,3.6l3.6-0.8L15.4,4.3c0.3-0.3,0.5-0.7,0.4-1.2c0-0.4-0.3-0.9-0.7-1.3
			c-0.6-0.6-1.7-1.1-2.5-0.2L2.2,12.1z"/>
	</g>
	<g class="st1">
		<rect x="12.6" y="1.4" transform="matrix(0.7071 -0.7071 0.7071 0.7071 1.1044 10.4146)" class="st2" width="1.1" height="4.9"/>
	</g>
	<g class="st1">
		<rect x="11.1" y="2.9" transform="matrix(0.7071 -0.7071 0.7071 0.7071 -0.4117 9.7867)" class="st2" width="1.1" height="4.9"/>
	</g>
	<g class="st1">
		<rect x="3.6" y="8.1" transform="matrix(0.7071 -0.7071 0.7071 0.7071 -3.6187 8.4584)" class="st2" width="9.6" height="1.1"/>
	</g>
	<g class="st1">
		<path class="st2" d="M3.4,13.1c-0.8,0-1.5-0.3-2.1-0.9L2,11.5C2.4,11.8,2.9,12,3.4,12s1-0.2,1.4-0.6l0.7,0.7
			C5,12.8,4.2,13.1,3.4,13.1z"/>
	</g>
	<g class="st1">
		<path class="st2" d="M4.8,15.7c-1.2-1.2-1.2-3,0-4.2l0.7,0.7c-0.7,0.8-0.7,2,0,2.7L4.8,15.7z"/>
	</g>
</g>
<g class="st0">
	<g class="st1">
		<rect x="0.3" y="14.8" transform="matrix(0.7071 -0.7071 0.7071 0.7071 -10.3646 5.6655)" class="st2" width="2.8" height="1"/>
	</g>
	<g class="st1">
		<path class="st2" d="M5.5,13.6c-0.5,0-1-0.2-1.4-0.5c-0.4-0.4-0.7-0.9-0.7-1.4c0-0.6,0.2-1.1,0.5-1.6C4,10,4.1,10,4.1,9.9
			l10.6-9.4c0.3-0.2,0.6-0.3,0.9-0.3c0.3,0,0.6,0.2,0.9,0.4c0.4,0.5,0.4,1.2,0,1.7L7.1,12.9C6.7,13.4,6.1,13.6,5.5,13.6z M15.6,1.2
			c0,0-0.1,0-0.2,0.1L4.8,10.7c0,0-0.1,0.1-0.1,0.1c-0.2,0.2-0.3,0.5-0.3,0.8c0,0.3,0.1,0.5,0.3,0.7c0.4,0.4,1.1,0.3,1.5-0.1
			l9.4-10.6c0,0,0,0,0,0c0.1-0.1,0.1-0.2,0-0.3C15.7,1.2,15.6,1.2,15.6,1.2C15.6,1.2,15.6,1.2,15.6,1.2z"/>
	</g>
	<g class="st1">
		<path class="st2" d="M0.7,16.9c-0.1,0-0.3-0.1-0.4-0.2c-0.1-0.1-0.2-0.3-0.1-0.4c0-0.1,0.2-1.8,0.7-3c0.1-0.2,0.2-0.4,0.3-0.6
			c0.1-0.1,0.1-0.2,0.2-0.2c0.1-0.1,0.2-0.2,0.3-0.2c0.1-0.1,0.3-0.1,0.5-0.1c0.3,0.1,0.7,0.1,1-0.2c0.1-0.1,0.3-0.1,0.5-0.1
			C4,12,4.3,12.2,4.6,12.4C4.8,12.7,5,13,5.1,13.4c0,0.2,0,0.3-0.1,0.5c-0.2,0.3-0.3,0.6-0.2,1c0.1,0.2,0,0.3-0.1,0.5
			c-0.1,0.1-0.2,0.2-0.2,0.3c-0.1,0.1-0.2,0.1-0.3,0.2C4.1,15.9,4,16,3.8,16.1C2.6,16.6,0.8,16.8,0.7,16.9
			C0.7,16.9,0.7,16.9,0.7,16.9z M2.1,13.2C2.1,13.2,2.1,13.2,2.1,13.2c-0.2,0.2-0.2,0.3-0.3,0.4c0,0,0,0,0,0c-0.3,0.6-0.4,1.4-0.5,2
			c0.6-0.1,1.4-0.3,2-0.6c0,0,0,0,0,0c0.1,0,0.2-0.1,0.3-0.2c0,0,0.1-0.1,0.1-0.1c-0.1-0.5,0-1,0.2-1.4c-0.1-0.1-0.1-0.2-0.2-0.3
			C3.7,13.1,3.6,13,3.5,13C3.1,13.2,2.6,13.3,2.1,13.2z"/>
	</g>
</g>
<g class="st0">
	<path class="st3" d="M2.7,16.9H0.6c-0.3,0-0.5-0.2-0.5-0.5v-2.1c0-0.1,0.1-0.3,0.2-0.4l0.5-0.5c0.1-0.1,0.2-0.2,0.4-0.2h0.5v-1.1
		c0-0.3,0.2-0.5,0.5-0.5h1.1v-1.1c0-0.3,0.2-0.5,0.5-0.5h1.1V9.6c0-0.1,0.1-0.3,0.2-0.4l1.8-1.8C6,5.4,6.4,3.2,7.9,1.6
		c2-2,5.4-2,7.4,0c0,0,0,0,0,0c2,2,2,5.4,0,7.4c-1.5,1.5-3.8,2-5.8,1.1l-6.5,6.6C3,16.9,2.9,16.9,2.7,16.9z M1.1,15.9h1.4l6.6-6.7
		C9.3,9,9.5,9,9.7,9.1c1.6,0.8,3.6,0.5,4.9-0.8c1.6-1.6,1.6-4.3,0-5.9v0c-1.6-1.6-4.3-1.6-5.9,0C7.4,3.7,7.1,5.6,7.9,7.3
		C8,7.5,8,7.7,7.8,7.9L5.9,9.8v0.8c0,0.3-0.2,0.5-0.5,0.5H4.3v1.1c0,0.3-0.2,0.5-0.5,0.5H2.7v1.1c0,0.3-0.2,0.5-0.5,0.5H1.4
		l-0.2,0.2V15.9z M12.7,5.9c-0.4,0-0.8-0.2-1.1-0.5c-0.6-0.6-0.6-1.6,0-2.2c0.6-0.6,1.6-0.6,2.2,0c0.3,0.3,0.5,0.7,0.5,1.1
		s-0.2,0.8-0.5,1.1c0,0,0,0,0,0C13.5,5.7,13.1,5.9,12.7,5.9z M12.7,3.8c-0.1,0-0.3,0.1-0.4,0.2c-0.2,0.2-0.2,0.5,0,0.7
		c0.2,0.2,0.5,0.2,0.7,0c0.1-0.1,0.2-0.2,0.2-0.4c0-0.1-0.1-0.3-0.2-0.4C13,3.8,12.8,3.8,12.7,3.8z"/>
</g>
<g>
	<g>
		<path class="st2" d="M12.2,6.9c-0.4,0-0.8-0.2-1.1-0.5c-0.3-0.3-0.5-0.7-0.5-1.1s0.2-0.8,0.5-1.1c0.6-0.6,1.6-0.6,2.2,0
			c0,0,0,0,0,0c0.3,0.3,0.5,0.7,0.5,1.1c0,0.4-0.2,0.8-0.5,1.1C13,6.7,12.6,6.9,12.2,6.9z M12.2,4.8c-0.1,0-0.3,0.1-0.4,0.2
			c-0.1,0.1-0.2,0.2-0.2,0.4c0,0.1,0.1,0.3,0.2,0.4c0.2,0.2,0.5,0.2,0.7,0c0.1-0.1,0.2-0.2,0.2-0.4c0-0.1-0.1-0.3-0.2-0.4l0,0
			C12.5,4.9,12.3,4.8,12.2,4.8z"/>
	</g>
	<g>
		<path class="st2" d="M8.5,5.3c-0.4,0-0.8-0.2-1.1-0.5c-0.6-0.6-0.6-1.6,0-2.2C8,2,9,2,9.6,2.6c0.3,0.3,0.5,0.7,0.5,1.1
			S9.9,4.6,9.6,4.9C9.3,5.2,8.9,5.3,8.5,5.3z M8.5,3.2c-0.1,0-0.3,0.1-0.4,0.2c-0.2,0.2-0.2,0.5,0,0.7c0.2,0.2,0.5,0.2,0.7,0
			C9,4,9,3.9,9,3.7C9,3.6,9,3.5,8.9,3.4C8.8,3.3,8.6,3.2,8.5,3.2z"/>
	</g>
	<g>
		<path class="st2" d="M5.1,6.4C4.7,6.4,4.4,6.3,4.1,6c-0.5-0.5-0.5-1.4,0-1.9c0.5-0.5,1.4-0.5,1.9,0c0.2,0.2,0.4,0.6,0.4,0.9
			C6.4,5.4,6.2,5.8,6,6C5.7,6.3,5.4,6.4,5.1,6.4z M5.1,4.8c-0.1,0-0.1,0-0.2,0.1C4.8,5,4.8,5.2,4.9,5.3c0.1,0.1,0.3,0.1,0.4,0
			c0.1-0.1,0.1-0.1,0.1-0.2c0,0,0-0.1-0.1-0.2C5.2,4.8,5.1,4.8,5.1,4.8z"/>
	</g>
	<g>
		<path class="st2" d="M4,10.6c-0.5,0-0.9-0.2-1.3-0.5C2.3,9.7,2.2,9.3,2.2,8.8c0-0.5,0.2-1,0.5-1.3c0.7-0.7,1.9-0.7,2.6,0l0,0v0
			l0,0c0.3,0.3,0.5,0.8,0.5,1.3c0,0.5-0.2,1-0.5,1.3C5,10.4,4.5,10.6,4,10.6z M4,8C3.8,8,3.6,8.1,3.4,8.2C3.3,8.4,3.2,8.6,3.2,8.8
			c0,0.2,0.1,0.4,0.2,0.6c0.3,0.3,0.8,0.3,1.1,0C4.7,9.2,4.8,9,4.8,8.8c0-0.2-0.1-0.4-0.2-0.6c0,0,0,0,0,0C4.4,8.1,4.2,8,4,8z"/>
	</g>
	<g>
		<path class="st2" d="M8.8,17C8.8,17,8.8,17,8.8,17c-1.5-0.1-2.4-0.8-2.4-1.9c0-1.5,1.2-1.7,1.8-1.8c0.5-0.1,0.6-0.1,0.6-0.2
			c0-0.3,0-0.5,0-0.5c-0.1-0.1-0.9,0-1.5,0c-0.6,0.1-1.4,0.2-2.2,0.2c-3.6,0-4.6-1.7-4.9-3c0,0,0,0,0,0C0.1,9.3,0,8.9,0,8.5
			C0,3.8,3.8,0,8.5,0S17,3.8,17,8.5c0,2.7-1.3,5.3-3.6,6.9c0,0,0,0-0.1,0c-0.1,0.1-0.2,0.1-0.3,0.2c-0.1,0.1-0.1,0.1-0.2,0.1
			c0,0,0,0,0,0C11.6,16.5,10.2,16.9,8.8,17C8.8,17,8.8,17,8.8,17z M8.4,11.4c0.5,0,0.8,0.1,1.1,0.4c0.3,0.3,0.4,0.8,0.3,1.4
			c-0.1,0.9-0.9,1-1.4,1.1c-0.7,0.1-0.9,0.2-0.9,0.8c0,0.6,0.8,0.8,1.3,0.8c1.2,0,2.4-0.4,3.5-1c0.1,0,0.1-0.1,0.2-0.1
			c0.1-0.1,0.2-0.2,0.4-0.2c2-1.4,3.1-3.6,3.1-6c0-4.1-3.3-7.4-7.4-7.4S1.1,4.4,1.1,8.5c0,0.3,0,0.7,0.1,1c0.3,1.4,1.6,2.2,3.9,2.2
			c0.8,0,1.5-0.1,2.1-0.2C7.6,11.4,8,11.4,8.4,11.4z"/>
	</g>
</g>
<g class="st0">
	<g class="st1">
		<path class="st2" d="M5.6,16.9c-0.1,0-0.2,0-0.3-0.1c-0.3-0.1-0.4-0.4-0.3-0.7l1.6-6.1H3.9c-0.2,0-0.4-0.1-0.5-0.2
			C3.3,9.7,3.3,9.6,3.3,9.4l2.2-8.8c0.1-0.3,0.3-0.4,0.6-0.4h6.5c0.2,0,0.4,0.1,0.5,0.3c0.1,0.2,0.1,0.4,0,0.6l-2.8,5h2.9
			c0.2,0,0.4,0.1,0.5,0.3s0.1,0.4-0.1,0.6L6,16.7C5.9,16.8,5.8,16.9,5.6,16.9z M4.6,8.9h2.7c0.2,0,0.4,0.1,0.5,0.2
			C7.9,9.3,8,9.5,7.9,9.7l-1,4l5-6.5H9.3c-0.2,0-0.4-0.1-0.5-0.3c-0.1-0.2-0.1-0.4,0-0.6l2.8-5h-5L4.6,8.9z"/>
	</g>
</g>
<g class="st0">
	<g class="st1">
		<path class="st2" d="M4.8,15.4l-3.1-5.1c0,0,0,0,0,0C1.5,9.9,1.4,9.5,1.6,9.1C1.7,8.7,2,8.3,2.4,8.1C2.7,8,3.2,7.9,3.6,8.1
			C4,8.2,4.3,8.5,4.5,8.8l1.2,1.9l-0.9,0.6L3.6,9.4c0,0,0,0,0,0C3.5,9.2,3.4,9.1,3.2,9.1C3.1,9,3,9,2.8,9.1C2.7,9.1,2.6,9.3,2.6,9.4
			c0,0.1,0,0.3,0,0.4l3.1,5.1L4.8,15.4z"/>
	</g>
	<g class="st1">
		<path class="st2" d="M11,16.9H7.5c-1.1,0-2.1-0.6-2.7-1.5l0.9-0.6c0.4,0.6,1.1,1,1.8,1H11c1.2,0,2.1-0.9,2.1-2.1v-3.4
			c0,0,0-0.1,0-0.1l1.3-5c0,0,0-0.1-0.1-0.2c-0.1-0.1-0.3-0.2-0.5-0.2c-0.2,0-0.3,0.2-0.6,0.7L12,8.7c-0.1,0.2-0.4,0.4-0.6,0.3
			C11.2,8.9,11,8.7,11,8.5l0.5-5.8c0-0.3-0.2-0.5-0.5-0.5c-0.3,0-0.5,0.2-0.5,0.5c0,0,0,0,0,0.1L9.9,8c0,0.3-0.3,0.5-0.6,0.5
			C9.1,8.5,8.9,8.3,8.9,8V1.6c0-0.3-0.2-0.5-0.5-0.5c-0.3,0-0.5,0.2-0.5,0.5v5.8C7.8,7.7,7.6,8,7.4,8C7.1,8,6.8,7.8,6.8,7.5L6,2.2
			c0,0,0-0.1,0-0.1c0-0.3-0.2-0.5-0.5-0.5c-0.3,0-0.5,0.2-0.5,0.5l0.8,8.8L4.7,11L3.9,2.2c0,0,0,0,0,0c0-0.9,0.7-1.6,1.6-1.6
			c0.6,0,1.1,0.3,1.3,0.8C7,0.6,7.6,0.1,8.4,0.1c0.8,0,1.5,0.6,1.6,1.5c0.3-0.3,0.7-0.4,1.1-0.4c0.9,0,1.6,0.7,1.6,1.6c0,0,0,0,0,0
			l-0.2,2.4c0.2-0.6,0.6-1.4,1.5-1.4c0.5,0,1,0.2,1.3,0.6c0.3,0.3,0.3,0.7,0.3,1.1l-1.3,5v3.4C14.2,15.5,12.8,16.9,11,16.9z"/>
	</g>
</g>
<g class="st0">
	<g class="st1">
		<path class="st2" d="M14.4,7.4c0,0-0.1,0-0.1,0c0,0-0.1,0-0.1,0c0,0-0.1,0-0.1-0.1c0,0-0.1,0-0.1-0.1c-0.1-0.1-0.2-0.2-0.2-0.4
			c0-0.1,0.1-0.3,0.2-0.4c0,0,0.1,0,0.1-0.1c0,0,0.1,0,0.1-0.1c0,0,0.1,0,0.1,0c0.1,0,0.1,0,0.2,0c0,0,0.1,0,0.1,0
			c0,0,0.1,0,0.1,0.1c0,0,0.1,0,0.1,0.1c0.1,0.1,0.2,0.2,0.2,0.4c0,0.1-0.1,0.3-0.2,0.4c0,0-0.1,0-0.1,0.1c0,0-0.1,0-0.1,0.1
			c0,0-0.1,0-0.1,0C14.4,7.4,14.4,7.4,14.4,7.4z"/>
	</g>
	<g class="st1">
		<path class="st2" d="M15.7,14.9H1.3c-0.7,0-1.3-0.6-1.3-1.3v-8c0-0.7,0.6-1.3,1.3-1.3h3.1L6,2.3c0.1-0.1,0.3-0.2,0.4-0.2h4.3
			c0.2,0,0.3,0.1,0.4,0.2l1.6,1.9h3.1c0.7,0,1.3,0.6,1.3,1.3v8C17,14.3,16.4,14.9,15.7,14.9z M1.3,5.3c-0.1,0-0.3,0.1-0.3,0.3v8
			c0,0.1,0.1,0.3,0.3,0.3h14.4c0.1,0,0.3-0.1,0.3-0.3v-8c0-0.1-0.1-0.3-0.3-0.3h-3.3c-0.2,0-0.3-0.1-0.4-0.2l-1.6-1.9H6.6L5,5.1
			C4.9,5.2,4.8,5.3,4.6,5.3H1.3z"/>
	</g>
	<g class="st1">
		<path class="st2" d="M8.5,13.3c-2.3,0-4.3-1.9-4.3-4.3s1.9-4.3,4.3-4.3s4.3,1.9,4.3,4.3S10.8,13.3,8.5,13.3z M8.5,5.8
			C6.7,5.8,5.3,7.3,5.3,9s1.4,3.2,3.2,3.2s3.2-1.4,3.2-3.2S10.3,5.8,8.5,5.8z"/>
	</g>
	<g class="st1">
		<path class="st2" d="M8.5,11.2c-1.2,0-2.1-1-2.1-2.1c0-1.2,1-2.1,2.1-2.1s2.1,1,2.1,2.1C10.6,10.2,9.7,11.2,8.5,11.2z M8.5,8
			C7.9,8,7.4,8.4,7.4,9c0,0.6,0.5,1.1,1.1,1.1S9.6,9.6,9.6,9C9.6,8.4,9.1,8,8.5,8z"/>
	</g>
</g>
<g class="st0">
	<g class="st1">
		<path class="st2" d="M16.9,15.4H0.1V1.6h16.9V15.4z M1.1,14.3h14.8V2.7H1.1V14.3z"/>
	</g>
	<g class="st1">
		<polygon class="st2" points="5.9,9 2.7,9 2.7,2.2 3.8,2.2 3.8,8 4.8,8 4.8,2.2 5.9,2.2 		"/>
	</g>
	<g class="st1">
		<rect x="3.8" y="8.5" class="st2" width="1.1" height="6.3"/>
	</g>
	<g class="st1">
		<polygon class="st2" points="10.1,9 6.9,9 6.9,2.2 8,2.2 8,8 9,8 9,2.2 10.1,2.2 		"/>
	</g>
	<g class="st1">
		<rect x="8" y="8.5" class="st2" width="1.1" height="6.3"/>
	</g>
	<g class="st1">
		<polygon class="st2" points="14.3,9 11.1,9 11.1,2.2 12.2,2.2 12.2,8 13.2,8 13.2,2.2 14.3,2.2 		"/>
	</g>
	<g class="st1">
		<rect x="12.2" y="8.5" class="st2" width="1.1" height="6.3"/>
	</g>
</g>
<g class="st0">
	<g class="st1">
		<path class="st2" d="M15.9,16.9H1.1c-0.6,0-1.1-0.5-1.1-1.1V6.4c0-0.6,0.5-1.1,1.1-1.1h14.8c0.6,0,1.1,0.5,1.1,1.1v9.5
			C16.9,16.5,16.5,16.9,15.9,16.9z M1.1,6.4v9.5h14.8V6.4H1.1z"/>
	</g>
	<g class="st1">
		<path class="st2" d="M14.3,8.5c0,0-0.1,0-0.1,0c0,0-0.1,0-0.1,0s-0.1,0-0.1,0c0,0-0.1,0-0.1-0.1c0,0,0-0.1-0.1-0.1
			c0,0,0-0.1-0.1-0.1c0,0,0-0.1,0-0.1c0,0,0-0.1,0-0.1c0-0.1,0.1-0.3,0.2-0.4c0,0,0,0,0.1-0.1c0,0,0.1,0,0.1,0c0,0,0.1,0,0.1,0
			c0.2,0,0.4,0,0.5,0.1c0.1,0.1,0.2,0.2,0.2,0.4c0,0.1-0.1,0.3-0.2,0.4C14.6,8.4,14.4,8.5,14.3,8.5z"/>
	</g>
	<g class="st1">
		<path class="st2" d="M14.3,10.6c0,0-0.1,0-0.1,0c0,0-0.1,0-0.1,0s-0.1,0-0.1,0c0,0-0.1,0-0.1-0.1c-0.1-0.1-0.2-0.2-0.2-0.4
			c0,0,0-0.1,0-0.1c0,0,0-0.1,0-0.1c0,0,0-0.1,0.1-0.1c0,0,0-0.1,0.1-0.1c0,0,0,0,0.1-0.1c0,0,0.1,0,0.1,0c0,0,0.1,0,0.1,0
			c0.2,0,0.4,0,0.5,0.1c0.1,0.1,0.2,0.2,0.2,0.4c0,0.1-0.1,0.3-0.2,0.4C14.6,10.5,14.4,10.6,14.3,10.6z"/>
	</g>
	<g class="st1">
		<path class="st2" d="M14.3,12.7c0,0-0.1,0-0.1,0c0,0-0.1,0-0.1,0s-0.1,0-0.1,0c0,0-0.1,0-0.1-0.1c0,0,0-0.1-0.1-0.1
			c0,0,0-0.1-0.1-0.1c0,0,0-0.1,0-0.1c0,0,0-0.1,0-0.1c0-0.1,0.1-0.3,0.2-0.4c0,0,0,0,0.1-0.1c0,0,0.1,0,0.1,0c0,0,0.1,0,0.1,0
			c0.2,0,0.4,0,0.5,0.1c0.1,0.1,0.2,0.2,0.2,0.4c0,0.1-0.1,0.3-0.2,0.4C14.6,12.7,14.4,12.7,14.3,12.7z"/>
	</g>
	<g class="st1">
		<path class="st2" d="M8.5,6.4c-0.1,0-0.3-0.1-0.4-0.2L2.9,1c-0.2-0.2-0.2-0.5,0-0.7C3.1,0,3.4,0,3.6,0.2l5.2,5.2
			c0.2,0.2,0.2,0.5,0,0.7C8.8,6.3,8.6,6.4,8.5,6.4z"/>
	</g>
	<g class="st1">
		<path class="st2" d="M8.5,6.4c-0.1,0-0.3-0.1-0.4-0.2C7.9,6,7.9,5.7,8.1,5.5l5.3-5.3c0.2-0.2,0.5-0.2,0.7,0c0.2,0.2,0.2,0.5,0,0.7
			L8.9,6.2C8.8,6.3,8.6,6.4,8.5,6.4z"/>
	</g>
	<g class="st1">
		<path class="st2" d="M12.2,16.9c-0.3,0-0.5-0.2-0.5-0.5V5.9c0-0.3,0.2-0.5,0.5-0.5s0.5,0.2,0.5,0.5v10.5
			C12.7,16.7,12.5,16.9,12.2,16.9z"/>
	</g>
</g>
<g class="st0">
	<g class="st1">
		<path class="st2" d="M8.5,12.4c-2,0-3.7-1.6-3.7-3.7v-5c0-2,1.6-3.7,3.7-3.7s3.7,1.6,3.7,3.7v5C12.2,10.8,10.5,12.4,8.5,12.4z
			 M8.5,1.2c-1.4,0-2.6,1.2-2.6,2.6v5c0,1.4,1.2,2.6,2.6,2.6s2.6-1.2,2.6-2.6v-5C11.1,2.3,9.9,1.2,8.5,1.2z"/>
	</g>
	<g class="st1">
		<path class="st2" d="M8.5,14.5c-3.2,0-5.8-2.6-5.8-5.8V7c0-0.3,0.2-0.5,0.5-0.5S3.8,6.7,3.8,7v1.7c0,2.6,2.1,4.7,4.7,4.7
			s4.7-2.1,4.7-4.7V7c0-0.3,0.2-0.5,0.5-0.5c0.3,0,0.5,0.2,0.5,0.5v1.7C14.3,11.9,11.7,14.5,8.5,14.5z"/>
	</g>
	<g class="st1">
		<rect x="3.3" y="7.2" class="st2" width="10.5" height="1"/>
	</g>
	<g class="st1">
		<path class="st2" d="M8.5,16.9c-0.3,0-0.5-0.2-0.5-0.5V14c0-0.3,0.2-0.5,0.5-0.5C8.8,13.5,9,13.7,9,14v2.4
			C9,16.7,8.8,16.9,8.5,16.9z"/>
	</g>
	<g class="st1">
		<path class="st2" d="M11.6,5.9H9.5C9.3,5.9,9,5.6,9,5.4c0-0.3,0.2-0.5,0.5-0.5h2.1c0.3,0,0.5,0.2,0.5,0.5
			C12.2,5.6,11.9,5.9,11.6,5.9z"/>
	</g>
	<g class="st1">
		<path class="st2" d="M11.6,3.8H9.5C9.3,3.8,9,3.5,9,3.3s0.2-0.5,0.5-0.5h2.1c0.3,0,0.5,0.2,0.5,0.5S11.9,3.8,11.6,3.8z"/>
	</g>
	<g class="st1">
		<path class="st2" d="M7.5,3.8H5.4c-0.3,0-0.5-0.2-0.5-0.5s0.2-0.5,0.5-0.5h2.1C7.7,2.7,8,3,8,3.3S7.7,3.8,7.5,3.8z"/>
	</g>
	<g class="st1">
		<path class="st2" d="M7.5,5.9H5.4c-0.3,0-0.5-0.2-0.5-0.5c0-0.3,0.2-0.5,0.5-0.5h2.1C7.7,4.8,8,5.1,8,5.4C8,5.6,7.7,5.9,7.5,5.9z"
			/>
	</g>
</g>
<g class="st0">
	<g class="st1">
		<path class="st2" d="M4.7,17c-1.4,0-2.6-1.2-2.6-2.6s1.1-2.6,2.6-2.6h1.5V2.4L14.9,0v12.3c0,1.5-1.1,2.6-2.6,2.6s-2.6-1.2-2.6-2.6
			s1.1-2.6,2.6-2.6h1.5V1.4L7.2,3.2v11.2C7.2,15.8,6.1,17,4.7,17z M4.7,12.8c-0.8,0-1.5,0.7-1.5,1.6s0.7,1.6,1.5,1.6
			s1.5-0.7,1.5-1.6v-1.6H4.7z M12.3,10.7c-0.8,0-1.5,0.7-1.5,1.6c0,0.9,0.7,1.6,1.5,1.6c0.8,0,1.5-0.7,1.5-1.6v-1.6H12.3z"/>
	</g>
	<g class="st1">
		<polygon class="st2" points="6.8,6 6.6,4.9 14.3,2.8 14.5,3.9 		"/>
	</g>
</g>
<g class="st0">
	<g class="st1">
		<path class="st2" d="M3.2,15.9c-0.1,0-0.3-0.1-0.4-0.2l-1.6-1.6C1,14,1,13.7,1.2,13.5l6.4-8l0.8,0.7l-6.1,7.6l0.9,0.9l7.6-6.1
			l0.7,0.8l-8,6.4C3.4,15.9,3.3,15.9,3.2,15.9z"/>
	</g>
	<g class="st1">
		<path class="st2" d="M0.5,17c-0.1,0-0.3-0.1-0.4-0.2c-0.2-0.2-0.2-0.5,0-0.8L2,14.2c0.2-0.2,0.5-0.2,0.8,0C3,14.4,3,14.8,2.8,15
			l-1.9,1.9C0.8,16.9,0.7,17,0.5,17z"/>
	</g>
	<g class="st1">
		<path class="st2" d="M6.4,11.2c-0.1,0-0.3-0.1-0.4-0.2c-0.2-0.2-0.2-0.5,0-0.8l1.1-1.1C7.3,9,7.6,9,7.8,9.2C8,9.4,8,9.7,7.8,9.9
			L6.8,11C6.6,11.1,6.5,11.2,6.4,11.2z"/>
	</g>
	<g class="st1">
		<rect x="10.4" y="2.2" transform="matrix(0.7071 -0.7071 0.7071 0.7071 -1.1206 9.4957)" class="st2" width="1.1" height="7.7"/>
	</g>
	<g class="st1">
		<path class="st2" d="M12.9,9.6h-2.5l-3-3l0-2.5C7.8,1.8,9.8,0,12.2,0C14.9,0,17,2.1,17,4.8C17,7.1,15.3,9.2,12.9,9.6L12.9,9.6z
			 M10.8,8.5h2c1.8-0.3,3.1-1.9,3.1-3.7c0-2.1-1.7-3.7-3.7-3.7c-1.9,0-3.5,1.4-3.7,3.2v1.9L10.8,8.5z"/>
	</g>
</g>
<g class="st0">
	<g class="st1">
		<path class="st2" d="M4.5,5.8C3.5,5.8,2.7,5,2.7,4s0.8-1.9,1.9-1.9S6.4,3,6.4,4S5.5,5.8,4.5,5.8z M4.5,3.2C4.1,3.2,3.7,3.5,3.7,4
			s0.4,0.8,0.8,0.8S5.3,4.4,5.3,4S5,3.2,4.5,3.2z"/>
	</g>
	<g class="st1">
		<path class="st2" d="M2.7,12.2l-1.1,0c0-0.9,1.9-4.8,4.1-4.8c1.1,0,1.6,0.7,2,1.2c0,0,0.1,0.1,0.1,0.2c0.1-0.1,0.1-0.3,0.2-0.4
			c0.6-1.5,1.5-4.1,3.2-4.1c2.7,0,4.2,7.6,4.2,8h-1.1c0-0.2-0.4-2-1.1-3.8c-0.9-2.3-1.7-3.1-2.1-3.1c-1,0-1.8,2.3-2.2,3.4
			c-0.3,1-0.5,1.4-1,1.4c-0.6,0-0.9-0.4-1.2-0.8C6.4,8.8,6.2,8.5,5.7,8.5C4.3,8.5,2.7,11.7,2.7,12.2z"/>
	</g>
	<g class="st1">
		<rect x="0.5" y="11.7" class="st2" width="15.9" height="1.1"/>
	</g>
	<g class="st1">
		<path class="st2" d="M17,17H0V0h17V17z M1.1,15.9h14.9V1.1H1.1V15.9z"/>
	</g>
</g>
<g class="st0">
	<g class="st1">
		<path class="st2" d="M5.4,13.9c-0.5,0-1.1-0.2-1.5-0.6c-0.8-0.8-0.8-2.2,0-3c0.8-0.8,2.2-0.8,3,0c0.4,0.4,0.6,0.9,0.6,1.5
			c0,0.6-0.2,1.1-0.6,1.5C6.5,13.7,5.9,13.9,5.4,13.9z M5.4,10.8c-0.3,0-0.5,0.1-0.8,0.3c-0.4,0.4-0.4,1.1,0,1.5
			C5,13,5.7,13,6.1,12.6c0.2-0.2,0.3-0.5,0.3-0.8c0-0.3-0.1-0.6-0.3-0.8C5.9,10.9,5.6,10.8,5.4,10.8z"/>
	</g>
	<g class="st1">
		<path class="st2" d="M5.1,17.1c-1.2,0-2.5-0.5-3.5-1.5c-0.9-0.9-1.4-2-1.5-3.2C0,11.1,0.4,10,1.2,9.2c0.6-0.6,1.3-0.9,2.1-1.1
			c0.1,0,0.2,0,0.3,0c0,0,0,0,0,0l0,0c0,0,0,0,0,0c0.7,0,1-0.5,1.3-0.9c0,0,0-0.1,0.1-0.1c0.2-0.3,0.3-0.5,0.5-0.7
			c1-1,2.7-1.3,4.1-0.5C9.9,6,10,6.3,9.9,6.6C9.7,6.8,9.4,6.9,9.1,6.8C8.2,6.3,7,6.4,6.3,7.1C6.2,7.3,6,7.4,5.9,7.7
			c0,0-0.1,0.1-0.1,0.1C5.6,8.2,5,9.1,3.8,9.1c0,0,0,0,0,0c0,0,0,0,0,0l0,0c0,0,0,0-0.1,0c0,0-0.1,0-0.1,0C2.9,9.3,2.4,9.5,2,9.9
			c-0.6,0.6-0.9,1.4-0.8,2.3c0.1,0.9,0.5,1.8,1.2,2.6c1.4,1.4,3.6,1.6,4.9,0.4c0.4-0.4,0.7-1,0.8-1.6c0,0,0-0.1,0-0.1
			c0-0.9,0.5-1.6,1.3-2.2c0,0,0.1-0.1,0.1-0.1c0.2-0.1,0.4-0.2,0.5-0.4c0.7-0.7,0.9-1.8,0.3-2.8c-0.1-0.3,0-0.6,0.2-0.7
			c0.3-0.1,0.6,0,0.7,0.2c0.7,1.4,0.5,3-0.5,4.1c-0.2,0.2-0.4,0.4-0.7,0.5c0,0-0.1,0-0.1,0.1c-0.3,0.2-0.9,0.6-0.9,1.4
			c0,0.1,0,0.2,0,0.3C8.9,14.7,8.6,15.4,8,16C7.2,16.7,6.2,17.1,5.1,17.1z M3.7,9.1C3.7,9.1,3.7,9.1,3.7,9.1
			C3.7,9.1,3.7,9.1,3.7,9.1z"/>
	</g>
	<g class="st1">
		<path class="st2" d="M7,12.3c-0.1,0-0.3-0.1-0.4-0.2c-0.2-0.2-0.2-0.5,0-0.8l9.2-9.2C15.8,2.1,15.9,2,16,1.9l-0.7-0.7
			c-0.1,0.1-0.2,0.2-0.3,0.3l-0.1,0.1l-9,9c-0.2,0.2-0.5,0.2-0.8,0c-0.2-0.2-0.2-0.5,0-0.8l9.1-9.1c0.3-0.3,0.6-0.6,1-0.6
			c0.3,0,0.5,0.1,0.7,0.3l0.8,0.8c0.2,0.2,0.3,0.5,0.3,0.7c0,0.4-0.3,0.8-0.6,1l-0.1,0.1l-9,9C7.2,12.2,7.1,12.3,7,12.3z"/>
	</g>
</g>
</svg>
